/* XPM */
static char *result[] = {
/* columns rows colors chars-per-pixel */
"29 32 204 2 ",
"   c #0D1022",
".  c #0E122D",
"X  c #36002D",
"o  c #38002C",
"O  c #2E0B3B",
"+  c #3A0A35",
"@  c #330D3A",
"#  c #380736",
"$  c #2F113F",
"%  c #30103E",
"&  c #08382C",
"*  c #651C14",
"=  c #6E2011",
"-  c #6D391D",
";  c #43052C",
":  c #4D072A",
">  c #470A2E",
",  c #5A0A29",
"<  c #49153A",
"1  c #5B1933",
"2  c #6A0E27",
"3  c #7C1426",
"4  c #72192D",
"5  c #631C31",
"6  c #6B1431",
"7  c #6C1027",
"8  c #672538",
"9  c #732431",
"0  c #7A2B33",
"q  c #7D2939",
"w  c #753331",
"e  c #5B4E37",
"r  c #7A4530",
"t  c #2E1342",
"y  c #2A1B4B",
"u  c #261A4C",
"i  c #321945",
"p  c #251F51",
"a  c #1E295D",
"s  c #1E275C",
"d  c #38254D",
"f  c #252354",
"g  c #2A2454",
"h  c #222659",
"j  c #222A5C",
"k  c #292B59",
"l  c #362F58",
"z  c #34325A",
"x  c #3B3459",
"c  c #2A3A53",
"v  c #482548",
"b  c #582C47",
"n  c #57334C",
"m  c #432852",
"M  c #483957",
"N  c #583A56",
"B  c #7B3748",
"V  c #533F65",
"C  c #384C48",
"Z  c #12785B",
"A  c #35695A",
"S  c #174965",
"D  c #2E4C6C",
"F  c #26636A",
"G  c #594655",
"H  c #42465D",
"J  c #794D52",
"K  c #764954",
"L  c #764D54",
"P  c #4A4663",
"I  c #567E6D",
"U  c #79727E",
"Y  c #852D1B",
"T  c #8D351D",
"R  c #97351C",
"E  c #B1221E",
"W  c #8C1924",
"Q  c #981D23",
"!  c #921835",
"~  c #A41B3C",
"^  c #8A242B",
"/  c #923B36",
"(  c #96393B",
")  c #8E2A31",
"_  c #A12022",
"`  c #B72925",
"'  c #A63E24",
"]  c #B13D2F",
"[  c #B6362C",
"{  c #BB3031",
"}  c #B62330",
"|  c #C62C1E",
" . c #CC2C1E",
".. c #D22E1E",
"X. c #D3311F",
"o. c #C52B25",
"O. c #CC2D21",
"+. c #D12E20",
"@. c #C8332A",
"#. c #DB3C23",
"$. c #D73621",
"%. c #C03433",
"&. c #9D463E",
"*. c #984D28",
"=. c #AF522A",
"-. c #B5562C",
";. c #A94738",
":. c #B5513A",
">. c #BC593E",
",. c #BD413D",
"<. c #C34E2B",
"1. c #DB4B2C",
"2. c #DD4025",
"3. c #C8562D",
"4. c #C64C35",
"5. c #C35A3B",
"6. c #CB5038",
"7. c #D65933",
"8. c #D64D36",
"9. c #E34C2B",
"0. c #E4542E",
"q. c #E9562F",
"w. c #E95B32",
"e. c #E25930",
"r. c #D3643D",
"t. c #D96337",
"y. c #E86538",
"u. c #F16636",
"i. c #F36B3A",
"p. c #F66835",
"a. c #EE713D",
"s. c #F9753C",
"d. c #FE7D3F",
"f. c #F3743F",
"g. c #9A1742",
"h. c #893B41",
"j. c #912B43",
"k. c #944D47",
"l. c #A95D4A",
"z. c #B9554C",
"x. c #BC6758",
"c. c #A5684C",
"v. c #867674",
"b. c #986C6E",
"n. c #B96E64",
"m. c #C65744",
"M. c #C86A48",
"N. c #D46E46",
"B. c #DC7347",
"V. c #EA7945",
"C. c #EC7846",
"Z. c #F37C43",
"A. c #FD7F41",
"S. c #F07541",
"D. c #168667",
"F. c #3F816F",
"G. c #418179",
"H. c #9C907F",
"J. c #968B7B",
"K. c #A88A7B",
"L. c #B0987D",
"P. c #DC8558",
"I. c #FF8242",
"U. c #E48856",
"Y. c #EB834F",
"T. c #D38E65",
"R. c #D69769",
"E. c #C89A73",
"W. c #CE8F68",
"Q. c #C3A77E",
"!. c #345F8C",
"~. c #236284",
"^. c #5E7A87",
"/. c #6F6A92",
"(. c #4266AC",
"). c #4E818C",
"_. c #658492",
"`. c #48A188",
"'. c #6E93B9",
"]. c #65B0AF",
"[. c #4881C6",
"{. c #62BBDF",
"}. c #6ECBD5",
"|. c #9E8684",
" X c #8F978E",
".X c #A89885",
"XX c #9BAC9E",
"oX c #9BB29D",
"OX c #97AA8B",
"+X c #A0AF9A",
"@X c #AAB99A",
"#X c #B1B896",
"$X c #BDAE88",
"%X c #94B3A7",
"&X c #C59F80",
"*X c #C1A881",
"=X c #D4B580",
"-X c #AAC09F",
";X c #99C3AC",
":X c #83C7B5",
">X c #A7C7A6",
",X c #82CBC4",
"<X c #96E0C2",
"1X c None",
/* pixels */
"1X1X1X1X1X1X1X1X1X= R l.m.y.p.0.w N V !.~.S 1X1X1X1X1X1X1X",
"1X1X1X1X1X1X1X' 3.B.E.#X@X#X*XB.1.i.C.z.b._.).F.A 1X1X1X1X",
"1X1X1X1X1X* &.E.#X>X$XR.C.P.*X>X@XQ.U.w. .4.l.I `.F.1X1X1X",
"1X1X1X1XY 0 l J.T.Y.B.I.I.I.I.a.M.$X>X|.4 E #.<.e A 1X1X1X",
"1X1X1XT k.D N w.d.N.M r.I.I.V.&.4.A.Z.J v < ` $.3.- 1X1X1X",
"1X1X1X*.^.,Xn.A.A.L p >.I.B.N f &.I.A.K.}.(.6 o.#.7.1X1X1X",
"1X1X3.L /.z.C.I.N.z u &.I.L a u 9 A.U.'.{.[.# Q +.9.*.1X1X",
"1XR f.oXn.m l.I.J s $ N L k h O 9 s.#X;X&X/.; ; Q $.t.1X1X",
"1X3.Y.>XJ a K M.z h $ h h j j O 9 P.<XR.d.a.` _ Q O.9.-.1X",
"* y.R.oXm a k z a y t j j j j @ ; OX>Xa.I.s.#.......X.t.1X",
"Y s.$X Xk h j j k y y j j j h # + :XL.) :.I.9.........e.- ",
"' m.%XI h j j j j y y j j j f X X _.n X ;.f.[ ........9.*.",
"<.8 _.H a j j j j t p j k j f o X o o > r.;.2 ..{ K.K.8.-.",
"6.< j j j j j j h $ f j j j f X o o o > r.5 2  .|.L.XXx.=.",
";.i k j j j j j h $ g j j j y o X X X 1 >.; 7 +.XXx..Xx.3.",
"[ $ j j j j j j h $ h j j j t o X X X 0 5.# W @.XX6.oXz.s.",
";.i j j j j j j g t j j j j t o o X X 0 / X _ { XXM.XX%.u.",
"] i j j j j j j f t j j j j t o o o X 0 / X _ Q  X+X|.@.u.",
"] i j j j j j j f $ j j j j t o X X X 0 / X _ 3 9 6.@.X.u.",
"] i j j j j j j g t j j j j y X o X X 0 / X _ 3 6  ...+.u.",
"] i k j j j j j f $ j j j j t o o o X 0 / X _ 3 : | X.X.u.",
"] + h j j j j j f $ j j j j t o o o X 0 / X _ 3 : | ..X.u.",
"] + j j j j j j f t j j j j t o o o X 5 :.o _ _ , | ..#.a.",
",.< j j h j j j g $ j j j j g X X o X : :.; 3  .W  .X.2.-.",
"<.1 f j j j j j f @ f j j j f o o o X > N.5 2 ........9.-.",
"h.9 p j j j j j j $ f j j j f o o X o o ] W 2 +.......w.r ",
"n :.d h.m j a j h t h j j j f X o o X X ^ o.! o.X...+.7.G ",
"h L v.e.q j x z h $ h a j j j @ o o ) 8 ,  .~ o.....2.M.c ",
"  C OXf.[ l M.l.a t b x a j j d + o 5.f.[ ..~ o...X.w.r . ",
"1X& C M.1.h.V.V.M d r.l.j j j ].v.; / d.X.} g.O...2.5.1X1X",
"Z D.F H j.{ i.I.M.l.I.C.M a z :XQ.5.t.w...~ } ..#.-.1X1X1X",
"D.D.F D j m j.7.s.I.I.d.( n B %XR.p.w.X.~ ~ ..| T 1X1X1X  "
};
