/* XPM */
static char *result[] = {
/* columns rows colors chars-per-pixel */
"33 32 214 2 ",
"   c #1B0E07",
".  c #0D142F",
"X  c #36002C",
"o  c #3A012C",
"O  c #2E0E3E",
"+  c #310634",
"@  c #360937",
"#  c #36123E",
"$  c #3B233D",
"%  c #0D302B",
"&  c #53170D",
"*  c #52281A",
"=  c #7E2817",
"-  c #78371C",
";  c #44062D",
":  c #4B0A2D",
">  c #4B082B",
",  c #450B34",
"<  c #530F33",
"1  c #681A2D",
"2  c #791427",
"3  c #651E31",
"4  c #680E27",
"5  c #563533",
"6  c #6B2233",
"7  c #742432",
"8  c #7A2937",
"9  c #6F323E",
"0  c #0A4535",
"q  c #2C1746",
"w  c #391846",
"e  c #330F4D",
"r  c #1F295D",
"t  c #252354",
"y  c #222A5C",
"u  c #2C2D5A",
"i  c #272656",
"p  c #382B54",
"a  c #34315A",
"s  c #2F396D",
"d  c #671E4D",
"f  c #48284B",
"g  c #5A2844",
"h  c #463857",
"j  c #533D56",
"k  c #442950",
"l  c #683647",
"z  c #692B42",
"x  c #2C4F45",
"c  c #356155",
"v  c #31576C",
"b  c #25696C",
"n  c #326361",
"m  c #584256",
"M  c #644453",
"N  c #79484F",
"B  c #4A4C6F",
"V  c #6D5265",
"C  c #427364",
"Z  c #821C12",
"A  c #8C2D1B",
"S  c #A52416",
"D  c #BE2C1B",
"F  c #9A1E23",
"G  c #941B34",
"H  c #A71D3B",
"J  c #963725",
"K  c #8A3534",
"L  c #923734",
"P  c #8B2D2E",
"I  c #A82222",
"U  c #BC2920",
"Y  c #B72927",
"T  c #BC382B",
"R  c #B72531",
"E  c #BC383D",
"W  c #AA3332",
"Q  c #C72B1F",
"!  c #D22E1D",
"~  c #D4311E",
"^  c #CA311E",
"/  c #CB2D22",
"(  c #C52928",
")  c #CE3E2B",
"_  c #C93428",
"`  c #D43522",
"'  c #DB3E24",
"]  c #D73722",
"[  c #834222",
"{  c #984D29",
"}  c #9C5029",
"|  c #AB572C",
" . c #A2433A",
".. c #A74638",
"X. c #B65635",
"o. c #B8512F",
"O. c #BC6031",
"+. c #C64D2A",
"@. c #DD4326",
"#. c #DE4628",
"$. c #D7492C",
"%. c #CA4B37",
"&. c #C85A3A",
"*. c #D65836",
"=. c #E34D2A",
"-. c #E04729",
";. c #E9572F",
":. c #E9552E",
">. c #EC5D33",
",. c #E35A33",
"<. c #F05D30",
"1. c #C96136",
"2. c #DC693D",
"3. c #EE6335",
"4. c #ED6C39",
"5. c #E66538",
"6. c #F26636",
"7. c #F46A37",
"8. c #F46D39",
"9. c #EC733C",
"0. c #E5713F",
"q. c #F4723D",
"w. c #FA753C",
"e. c #FD7A3E",
"r. c #88144A",
"t. c #9B1742",
"y. c #873E69",
"u. c #8A494B",
"i. c #9F5143",
"p. c #93564F",
"a. c #9F5A4C",
"s. c #875454",
"d. c #915552",
"f. c #8E474A",
"g. c #B84C48",
"h. c #A65A49",
"j. c #AE4A4F",
"k. c #9A6E56",
"l. c #AB614C",
"z. c #B46B5E",
"x. c #896969",
"c. c #997C7C",
"v. c #8E677F",
"b. c #B97C64",
"n. c #B57F69",
"m. c #AC7669",
"M. c #C14F41",
"N. c #C5664B",
"B. c #D46B43",
"V. c #DB7246",
"C. c #D47047",
"Z. c #D37A55",
"A. c #E47442",
"S. c #E87948",
"D. c #F47C43",
"F. c #FC7E41",
"G. c #F17743",
"H. c #EA6840",
"J. c #158666",
"K. c #8C8C7C",
"L. c #B8836C",
"P. c #B68C77",
"I. c #AF8F75",
"U. c #BFA47F",
"Y. c #DC875A",
"T. c #EE804B",
"R. c #FF8142",
"E. c #F5844A",
"W. c #E88350",
"Q. c #DA9162",
"!. c #C49C78",
"~. c #CC8F68",
"^. c #C7A67C",
"/. c #D1A475",
"(. c #425698",
"). c #665C84",
"_. c #506C84",
"`. c #657986",
"'. c #5D8595",
"]. c #7C8A8F",
"[. c #6899A5",
"{. c #6387BD",
"}. c #6CA7AA",
"|. c #74ADA9",
" X c #5196D6",
".X c #60A7CB",
"XX c #71C2C3",
"oX c #73D5DE",
"OX c #6BC7DB",
"+X c #6CCAE2",
"@X c #75E0E4",
"#X c #978689",
"$X c #959891",
"%X c #AB9783",
"&X c #99A99D",
"*X c #B8A784",
"=X c #A6AB94",
"-X c #ABBB9B",
";X c #A5B79C",
":X c #AFAC8F",
">X c #98B8A4",
",X c #83ADA2",
"<X c #C6B789",
"1X c #AFC39E",
"2X c #9BC5AD",
"3X c #9DCEB1",
"4X c #99DEBF",
"5X c #A3C4A6",
"6X c #A7C9A7",
"7X c #A8D4AF",
"8X c #9ADFC0",
"9X c #96E6C6",
"0X c #90F4D3",
"qX c None",
/* pixels */
"qXqXqXqXqXqXqXqXA S #.8.R.R.F.>.' ! ` 3XI.S Z &   qXc x qXqXqXqXqX",
"qXqXqXqXqXqXC k.@.;.F.F.R.R.R.R.q.@.%.4XU.<.@./ o.[ qXqXqXqXqXqXqX",
"qXqXqXqXqX{ >XN.:.F.R.R.R.R.R.R.R.6.N.9XY.R.w.#.~ 3.| qXqXqXqXqXqX",
"qXqXqXqX1.Y.5X2.F.R.R.R.R.R.F.R.R.w.%X8XT.R.R.F.-.~ 3.| qXqXqXqXqX",
"qXqXqX{ w.:X*Xe.R.R.R.F.R.R.R.F.R.w.1X5Xq.R.R.R.8.~ ~ 9.| qXqXqXqX",
"qXqX- S.^.2XS.R.R.R.R.R.R.R.R.R.R.F.~.9X!.e.R.F.e.@.~ @.9.[ qXqXqX",
"qXqXo.=X;XB.w.R.R.R.R.R.R.R.R.R.R.R.=.L.9X!.F.R.R.,.! ! #.2.qXqXqX",
"qXA 8 s.*.;.R.R.R.R.R.F.R.R.R.R.R.R.=.#.!.[.L F.R.,.! ~ ~ 3.O.qXqX",
"qXP > o.=.8.R.R.R.R.R.R.R.R.R.R.F.R.=.=.&., o W R.7.! ! ! ' 4.- qX",
"& J @ W -.w.R.R.R.R.R.R.F.R.R.R.R.E.=.$.3 X X 3 e.w.` ! ! ! 3.O.qX",
"= 7 + g =.R.R.R.R.R.R.R.R.R.R.R.R.R.$.2 + o o < 2.q.] / M.g.#.G.* ",
"A z '.,X2.R.R.R.R.R.R.R.R.R.R.R.R.F.s.}.}.(.@ + 1.e._ c.=X2X%.q.{ ",
"+.h.XXoXP.R.e.R.R.R.R.R.R.R.F.e.F.X.m OX+X Xe 3 H.w.E >X%.;Xj.3.O.",
"$.9 XX@X{.m.Q.R.e.R.R.e.F.G.Q.~.d.w h +XoX Xe K G.G.) >X%.=Xm.:.R.",
",...].[.).c.6X6XQ.S.Y.^.-X5X6X:Xx.9 g `.`.s , 8 A.w.` &Xb.n.%X$.e.",
"4.e.%XL.3.F.T.^.6X;X6X:X/.W.E.e.R.D.$.u.`. .1.F.R.w.! c.P.n.#X' R.",
"6.R.<Xb.8.R.R.F.F.G.F.F.R.R.R.R.R.R.=.L.8Xq.R.R.R.8.~ z.2X#Xj.#.R.",
"3.e.<Xb.7.R.R.R.R.R.R.R.R.R.R.R.R.F.' n.9XE.R.R.R.;.~ / %._ ! #.R.",
"3.e.Z.L.8.l.C.R.R.R.R.A.V.R.R.R.R.q.] ;X7XE.R.R.R.+.( ! ! ~ ~ #.R.",
"7.&.u.-XB.h p.R.R.R.A.5 M F.R.R.a.7 / 3XU.e.D.D.R.L F ^ F Q ~ #.e.",
"6.K w $Xu.y m D.R.D.l q a V.R.0.h + F 3X*X9.8 X.w.1 4 U > I ~ -.R.",
"+.7 O B p r u C.R.d.t O r l.R.p.r + ; |.:X7 X ..5.> > I > S ! -.F.",
"J 7 + y r y r s.p.y t O r m N.h r O o # , o X 6 *.> o I I Q ! -.q.",
" . .X t r y y u y y t + y y u y y q X o o o X 6 >.2 o 2 ! ! ! <.| ",
"M X.; f N p y y y y y @ t r r y y q o X X X o ; T Y ; 2 ! ! ! 6.{ ",
"h 1.1 V >.z r u h y y O p s.a y y q o X o ; L > S ( < 2 ! ! ] 4.5 ",
"u i. .K.8.P r h V.m y O l 9.M r y P x.w X : B...U ( r.F ! ! ' V.x ",
". w h.;X8.T i s.R.l.i O h.R.a.r i W =X_.X 6 F.>.! R t.! ! ! <.l.r ",
"qXqX* $XS.$.l N.R.T.m # V.R.C.a f ( ;X|.> L F.#.^ H H ~ ! ' 4.5 . ",
"% 0 0 n L.3.) G.R.R.h.l F.R.D.N K E 4X<X4.G.8.` Y r.( ~ ` >.} qXqX",
"J.b J.b v l W E H.R.D.B.R.R.R.4.R v.0XZ.F.w.-./ t.H ~ ~ ,.X.qXqXqX",
"J.J.J.b v y k d r.E >.6.3.3.;.` y..X>X_ ' ' ! t.r.( Q J [ qXqXqXqX"
};
